# xmcd
#
# Track frame offsets:
# 150
# 15772
# 31017
# 52077
# 69152
# 90760
# 106365
# 119372
# 133407
# 157332
# 170980
#
# Disc length: 2570 seconds
#
#
# Revision: 0
# Processed by: cddbd v1.5.1PL2 Copyright (c) Steve Scherf et al.
# Submitted via: FreeRIP 2.945 
#
DISCID=8c0a080b
DTITLE=Junior Valentine - I Can Tell
DYEAR=1998
DGENRE=R&B
TTITLE0=That wil never do
TTITLE1=Crazy 'bout an automobile (every woman I know)
TTITLE2=Good lover
TTITLE3=Ain't doin' too bad
TTITLE4=It's my own fault
TTITLE5=Fishin' in amy pond
TTITLE6=Sick and tired
TTITLE7=Tick Tock
TTITLE8=I can tell
TTITLE9=Poison Ivy
TTITLE10=Take out some insurance
EXTD=
EXTT0=
EXTT1=
EXTT2=
EXTT3=
EXTT4=
EXTT5=
EXTT6=
EXTT7=
EXTT8=
EXTT9=
EXTT10=
PLAYORDER=
